<?xml version="1.0"?>
<svg version="1.1" xmlns="http://www.w3.org/2000/svg" width="400px" height="200px" style="border: dashed 2px #aaa"><path fill="#ffffff" d="M131.3359375,107.830078125l0.22265625-0.3896484375q2.783203125-1.6328125,5.5107421875-3.302734375t5.5849609375-3.19140625l-0.07421875,0.037109375q0.4267578125-0.296875,0.86279296875-0.47314453125t0.91845703125-0.17626953125q0.296875,0,0.7236328125,0.08349609375t0.5009765625,0.49169921875q-0.07421875,0.185546875-0.7978515625,0.705078125t-1.79052734375,1.2431640625t-2.337890625,1.49365234375t-2.4306640625,1.49365234375t-2.0595703125,1.2802734375t-1.23388671875,0.7421875q0.333984375,0.259765625,1.23388671875,0.927734375t2.00390625,1.521484375t2.30078125,1.80908203125t2.21728515625,1.79052734375t1.70703125,1.47509765625t0.7978515625,0.88134765625q-0.07421875,0.5380859375-0.69580078125,0.66796875t-1.04833984375,0.1298828125t-1.3359375-0.556640625t-2.06884765625-1.41015625t-2.4306640625-1.90185546875t-2.4677734375-2.03173828125t-2.14306640625-1.78125t-1.447265625-1.1875z M149.35569335938,92.81005859375q-0.04638671875-0.56591796875,0.07421875-0.9833984375t0.482421875-0.6865234375t1.15966796875-0.26904296875l2.9873046875,0q0.6123046875,0,1.60498046875,0.06494140625t2.1337890625,0.19482421875t2.27294921875,0.39892578125t2.06884765625,0.66796875t1.521484375,0.9833984375t0.58447265625,1.38232421875q0,1.1318359375-0.65869140625,2.12451171875t-1.6513671875,1.79052734375t-2.0966796875,1.41943359375t-1.97607421875,1.12255859375q3.451171875,0.7607421875,5.3994140625,3.154296875t1.9482421875,5.974609375q0,1.892578125-0.7236328125,3.73876953125t-1.97607421875,3.33056640625t-2.96875,2.3935546875t-3.68310546875,0.9091796875q-0.259765625,0-0.58447265625-0.0556640625t-0.59375-0.17626953125t-0.4638671875-0.34326171875t-0.19482421875-0.5751953125q0-1.6328125,1.7626953125-1.6328125q0.296875,0,0.69580078125,0.08349609375t0.62158203125,0.34326171875q1.0205078125-0.4267578125,1.86474609375-1.3544921875t1.4287109375-2.06884765625t0.9091796875-2.3935546875t0.32470703125-2.27294921875q0-1.224609375-0.36181640625-2.49560546875t-1.04833984375-2.3564453125t-1.6884765625-1.82763671875t-2.30078125-0.927734375q-0.333984375-0.037109375-0.73291015625-0.0556640625l-0.7978515625-0.037109375t-0.779296875-0.111328125t-0.65869140625-0.296875q0.1484375,3.080078125,0.38037109375,6.1416015625t0.62158203125,6.1416015625q0.1484375,0.1484375,0.2041015625,0.43603515625t0.0927734375,0.6123046875t0.037109375,0.62158203125l0,0.5009765625q0,0.333984375-0.22265625,0.54736328125t-0.52880859375,0.34326171875t-0.6494140625,0.1669921875t-0.60302734375,0.037109375q-0.8349609375,0-1.2802734375-0.22265625t-0.630859375-0.6494140625t-0.2412109375-0.97412109375t-0.0927734375-1.19677734375q-0.5009765625-5.1767578125-0.7236328125-10.2421875t-0.22265625-10.2421875q0-0.6123046875-0.04638671875-1.17822265625z M152.77903320313,92.021484375q0,2.2822265625,0.1484375,4.57373046875t0.259765625,4.57373046875q0.8349609375-0.5009765625,2.189453125-1.17822265625t2.62548828125-1.49365234375t2.18017578125-1.7998046875t0.9091796875-2.1337890625q0-0.9091796875-1.076171875-1.38232421875t-2.5048828125-0.705078125t-2.79248046875-0.28759765625t-1.93896484375-0.1669921875z M169.02681640625,109.462890625l0-2.931640625q0-3.04296875,0.10205078125-6.03955078125t0.17626953125-6.03955078125q0-0.5751953125-0.037109375-1.2802734375q-0.0185546875-0.2041015625-0.0185546875-0.3896484375q0-0.4638671875,0.07421875-0.9091796875q0.0927734375-0.59375,0.45458984375-1.0205078125t1.19677734375-0.4267578125q0.6865234375,0,1.04833984375,0.1484375t0.51025390625,0.43603515625t0.1669921875,0.7236328125t0.0185546875,1.01123046875q0,3.080078125-0.07421875,6.1787109375q-0.0556640625,2.0595703125-0.0556640625,4.119140625q0,1.0390625,0.0185546875,2.078125q0.037109375,3.080078125,0.28759765625,6.16015625t0.84423828125,6.0859375q1.85546875-0.07421875,3.7109375-0.185546875t3.7109375-0.111328125q0.185546875,0,0.52880859375,0.037109375t0.6865234375,0.1298828125t0.58447265625,0.2412109375t0.2412109375,0.4267578125q0,0.185546875-0.1669921875,0.3154296875t-0.3154296875,0.2041015625l-0.037109375,0q-0.296875,0.1484375-1.17822265625,0.28759765625t-2.00390625,0.21337890625t-2.3564453125,0.1298828125t-2.3193359375,0.0927734375t-1.88330078125,0.0556640625t-0.9833984375,0.0185546875l-0.1669921875,0q-0.4453125,0-1.001953125-0.1484375q-0.66796875-0.185546875-0.8349609375-0.7236328125q-0.333984375-1.373046875-0.52880859375-2.84814453125t-0.296875-2.99658203125t-0.10205078125-3.04296875z M185.86834960938,105.8818359375q0-1.0947265625,0.12060546875-2.6533203125t0.4453125-3.2470703125t0.8720703125-3.3583984375t1.40087890625-2.9501953125t2.041015625-2.0224609375q0.9833984375-0.6123046875,2.263671875-0.6123046875q0.259765625,0,0.5380859375,0.037109375q3.228515625,0.296875,4.96337890625,1.47509765625t2.53271484375,2.9873046875t0.927734375,4.119140625t0.1298828125,4.87060546875q0,2.0595703125-0.38037109375,4.48095703125t-1.34521484375,4.51806640625t-2.66259765625,3.49755859375t-4.31396484375,1.40087890625q-1.595703125,0-2.79248046875-0.58447265625t-2.03173828125-1.55859375t-1.373046875-2.263671875t-0.81640625-2.671875t-0.39892578125-2.79248046875t-0.12060546875-2.671875z M189.63495117188,105.046875q0,0.7978515625,0.0185546875,1.95751953125t0.15771484375,2.43994140625t0.36181640625,2.55126953125t0.65869140625,2.31005859375t1.10400390625,1.70703125t1.6142578125,0.705078125l0.0927734375,0q0.853515625,0,1.521484375-0.6494140625q0.705078125-0.6865234375,1.25244140625-1.6513671875t0.9462890625-2.03173828125t0.71435546875-1.82763671875l-0.07421875,0.1669921875q0.5380859375-1.70703125,0.7236328125-3.49755859375t0.185546875-3.53466796875q0-0.8349609375-0.111328125-2.01318359375t-0.36181640625-2.45849609375t-0.6494140625-2.53271484375t-1.01123046875-2.18017578125t-1.4287109375-1.41015625q-0.59375-0.3525390625-1.3173828125-0.37109375q-0.2783203125,0-0.556640625,0.0556640625q-0.9462890625,0.185546875-1.6142578125,0.927734375t-1.08544921875,1.82763671875t-0.64013671875,2.375t-0.34326171875,2.59765625t-0.13916015625,2.5048828125t-0.0185546875,2.03173828125z M198.00311523438,110.76171875l0-0.037109375l0,0.037109375z M205.9755078125,103.19140625q0-1.224609375,0.10205078125-2.68115234375t0.36181640625-2.92236328125t0.779296875-2.82958984375t1.3359375-2.4306640625t1.99462890625-1.69775390625t2.81103515625-0.630859375q1.298828125,0,2.3935546875,0.5009765625t1.9111328125,1.3544921875t1.27099609375,1.99462890625t0.45458984375,2.38427734375q0,0.333984375-0.45458984375,0.41748046875t-0.64013671875,0.08349609375q-0.333984375,0-0.64013671875-0.0556640625t-0.45458984375-0.4453125q-0.259765625-0.7236328125-0.54736328125-1.521484375t-0.705078125-1.45654296875t-1.02978515625-1.08544921875q-0.556640625-0.37109375-1.41015625-0.37109375l-0.1484375,0q-1.55859375,0.037109375-2.3193359375,1.11328125t-1.04833984375,2.6162109375t-0.28759765625,3.265625l0,3.0615234375q0,0.7607421875,0.0556640625,2.2080078125t0.26904296875,3.154296875t0.556640625,3.47900390625t0.927734375,3.228515625t1.40087890625,2.375t1.966796875,0.91845703125q1.0205078125,0,1.78125-0.705078125t1.30810546875-1.80908203125t0.927734375-2.4677734375t0.630859375-2.73681640625t0.38037109375-2.55126953125t0.2041015625-1.93896484375q-0.2041015625-0.0185546875-0.3896484375-0.0185546875q-0.8720703125,0-1.70703125,0.2783203125q-1.0576171875,0.3154296875-2.115234375,0.3154296875q-0.1484375,0-0.39892578125-0.0185546875t-0.47314453125-0.0927734375t-0.39892578125-0.21337890625t-0.17626953125-0.36181640625q0-0.4267578125,0.93701171875-0.7236328125t2.1337890625-0.51025390625t2.31005859375-0.30615234375t1.4658203125-0.0927734375q0.185546875,0,0.52880859375,0.037109375t0.6865234375,0.1298828125t0.58447265625,0.26904296875t0.2412109375,0.43603515625q0,0.22265625-0.1669921875,0.39892578125t-0.41748046875,0.26904296875t-0.51025390625,0.1298828125t-0.408203125,0.037109375q0.0185546875,0.4267578125,0.0185546875,0.8720703125q0,1.001953125-0.0556640625,2.1337890625q-0.0927734375,1.6328125-0.37109375,3.265625t-0.853515625,3.1728515625t-1.4658203125,2.71826171875t-2.19873046875,1.90185546875t-3.10791015625,0.7236328125q-1.966796875,0-3.3212890625-0.8349609375t-2.2080078125-2.2265625t-1.32666015625-3.154296875t-0.67724609375-3.60888671875t-0.25048828125-3.59033203125t-0.04638671875-3.154296875z M227.30727539062,100.9091796875q0.07421875-0.4267578125,0.49169921875-0.5009765625t0.71435546875-0.07421875q0.5009765625,0,0.93701171875,0.17626953125t0.84423828125,0.47314453125l-0.07421875-0.037109375q2.857421875,1.521484375,5.59423828125,3.19140625t5.50146484375,3.302734375l0.2412109375,0.3896484375l-0.2412109375,0.37109375q-0.5009765625,0.37109375-1.447265625,1.17822265625t-2.14306640625,1.79052734375t-2.4677734375,2.03173828125t-2.4306640625,1.90185546875t-2.06884765625,1.41015625t-1.3359375,0.556640625t-1.04833984375-0.13916015625t-0.69580078125-0.65869140625q0.07421875-0.22265625,0.779296875-0.8720703125t1.73486328125-1.484375t2.2265625-1.79052734375t2.29150390625-1.80908203125t1.97607421875-1.521484375t1.25244140625-0.927734375q-0.333984375-0.185546875-1.23388671875-0.7421875t-2.0595703125-1.2802734375t-2.4306640625-1.49365234375t-2.32861328125-1.49365234375t-1.78125-1.2431640625t-0.7978515625-0.705078125z"/><path fill="#" d=""/></svg>
